<svg xmlns="http://www.w3.org/2000/svg" version="1.1" xmlns:xlink="http://www.w3.org/1999/xlink" xmlns:svgjs="http://svgjs.com/svgjs" width="1440" height="560" preserveAspectRatio="none" viewBox="0 0 1440 560"><g mask="url(&quot;#SvgjsMask1000&quot;)" fill="none"><rect width="1440" height="560" x="0" y="0" fill="#0e2a47"></rect><path d="M0,469.434C97.382,480.836,195.771,482.183,287.315,447.071C392.902,406.573,505.793,355.098,558.696,255.148C612.3,153.875,603.689,27.05,567.108,-81.538C533.463,-181.412,449,-252.226,365.925,-317.076C295.017,-372.428,212.539,-404.844,125.226,-426.48C41.117,-447.323,-42.535,-443.134,-129.122,-439.751C-244.159,-435.256,-380.125,-480.58,-465.545,-403.397C-549.746,-327.316,-544.712,-189.068,-531.268,-76.385C-519.553,21.801,-447.742,96.608,-395.846,180.777C-350.806,253.827,-316.442,333.933,-247.101,384.497C-175.272,436.876,-88.295,459.096,0,469.434" fill="#0b2239"></path><path d="M1440 989.952C1519.566 987.97 1593.496 942.703 1649.787 886.435 1700.268 835.9739999999999 1714.301 763.068 1735.24 694.831 1753.5810000000001 635.062 1770.4850000000001 575.588 1764.263 513.378 1757.845 449.214 1730.606 391.696 1699.282 335.331 1660.769 266.032 1636.352 172.546 1561.055 147.72500000000002 1485.984 122.97899999999998 1409.006 179.586 1339.176 216.62599999999998 1280.391 247.80700000000002 1233.049 292.658 1190.837 344.099 1149.635 394.31 1105.026 446.25 1097.784 510.797 1090.625 574.6 1131.9940000000001 630.539 1151.848 691.595 1174.737 761.986 1171.966 843.815 1223.387 897.057 1279.093 954.736 1359.837 991.9490000000001 1440 989.952" fill="#113255"></path></g><defs><mask id="SvgjsMask1000"><rect width="1440" height="560" fill="#ffffff"></rect></mask></defs></svg>